name C:\Users\u0101727\Documents\MyRepositories\upper-imu-dc\OpenSim\subject0\MA\MA_Splines\angle_in_n3_dof9_1.mot
datacolumns 10
datarows 56
range 172.63000000 173.18000000
endheader 
time	clav_prot	clav_elev	scapula_abduction	scapula_elevation	scapula_upward_rot	scapula_winging	plane_elv	shoulder_elv	axial_rot	
        172.63000000	        -44.34577705	         -7.65248351	         -9.79969714	         -7.82036939	          8.23102828	          6.73993887	         70.85495313	         47.35717561	         63.72152975	
        172.64000000	        -30.62585626	         -7.65248351	         -9.79969714	         -7.82036939	          8.23102828	          6.73993887	         70.85495313	         47.35717561	         63.72152975	
        172.65000000	        -16.90593547	         -7.65248351	         -9.79969714	         -7.82036939	          8.23102828	          6.73993887	         70.85495313	         47.35717561	         63.72152975	
        172.66000000	        -44.34577705	          4.60560848	         -9.79969714	         -7.82036939	          8.23102828	          6.73993887	         70.85495313	         47.35717561	         63.72152975	
        172.67000000	        -30.62585626	          4.60560848	         -9.79969714	         -7.82036939	          8.23102828	          6.73993887	         70.85495313	         47.35717561	         63.72152975	
        172.68000000	        -16.90593547	          4.60560848	         -9.79969714	         -7.82036939	          8.23102828	          6.73993887	         70.85495313	         47.35717561	         63.72152975	
        172.69000000	        -44.34577705	         16.86370047	         -9.79969714	         -7.82036939	          8.23102828	          6.73993887	         70.85495313	         47.35717561	         63.72152975	
        172.70000000	        -30.62585626	         16.86370047	         -9.79969714	         -7.82036939	          8.23102828	          6.73993887	         70.85495313	         47.35717561	         63.72152975	
        172.71000000	        -16.90593547	         16.86370047	         -9.79969714	         -7.82036939	          8.23102828	          6.73993887	         70.85495313	         47.35717561	         63.72152975	
        172.72000000	        -44.34577705	         -7.65248351	         11.28790885	         -7.82036939	          8.23102828	          6.73993887	         70.85495313	         47.35717561	         63.72152975	
        172.73000000	        -30.62585626	         -7.65248351	         11.28790885	         -7.82036939	          8.23102828	          6.73993887	         70.85495313	         47.35717561	         63.72152975	
        172.74000000	        -16.90593547	         -7.65248351	         11.28790885	         -7.82036939	          8.23102828	          6.73993887	         70.85495313	         47.35717561	         63.72152975	
        172.75000000	        -44.34577705	          4.60560848	         11.28790885	         -7.82036939	          8.23102828	          6.73993887	         70.85495313	         47.35717561	         63.72152975	
        172.76000000	        -30.62585626	          4.60560848	         11.28790885	         -7.82036939	          8.23102828	          6.73993887	         70.85495313	         47.35717561	         63.72152975	
        172.77000000	        -16.90593547	          4.60560848	         11.28790885	         -7.82036939	          8.23102828	          6.73993887	         70.85495313	         47.35717561	         63.72152975	
        172.78000000	        -44.34577705	         16.86370047	         11.28790885	         -7.82036939	          8.23102828	          6.73993887	         70.85495313	         47.35717561	         63.72152975	
        172.79000000	        -30.62585626	         16.86370047	         11.28790885	         -7.82036939	          8.23102828	          6.73993887	         70.85495313	         47.35717561	         63.72152975	
        172.80000000	        -16.90593547	         16.86370047	         11.28790885	         -7.82036939	          8.23102828	          6.73993887	         70.85495313	         47.35717561	         63.72152975	
        172.81000000	        -44.34577705	         -7.65248351	        -30.88730313	         -0.36668095	          8.23102828	          6.73993887	         70.85495313	         47.35717561	         63.72152975	
        172.82000000	        -30.62585626	         -7.65248351	        -30.88730313	         -0.36668095	          8.23102828	          6.73993887	         70.85495313	         47.35717561	         63.72152975	
        172.83000000	        -16.90593547	         -7.65248351	        -30.88730313	         -0.36668095	          8.23102828	          6.73993887	         70.85495313	         47.35717561	         63.72152975	
        172.84000000	        -44.34577705	          4.60560848	        -30.88730313	         -0.36668095	          8.23102828	          6.73993887	         70.85495313	         47.35717561	         63.72152975	
        172.85000000	        -30.62585626	          4.60560848	        -30.88730313	         -0.36668095	          8.23102828	          6.73993887	         70.85495313	         47.35717561	         63.72152975	
        172.86000000	        -16.90593547	          4.60560848	        -30.88730313	         -0.36668095	          8.23102828	          6.73993887	         70.85495313	         47.35717561	         63.72152975	
        172.87000000	        -44.34577705	         16.86370047	        -30.88730313	         -0.36668095	          8.23102828	          6.73993887	         70.85495313	         47.35717561	         63.72152975	
        172.88000000	        -30.62585626	         16.86370047	        -30.88730313	         -0.36668095	          8.23102828	          6.73993887	         70.85495313	         47.35717561	         63.72152975	
        172.89000000	        -16.90593547	         16.86370047	        -30.88730313	         -0.36668095	          8.23102828	          6.73993887	         70.85495313	         47.35717561	         63.72152975	
        172.90000000	        -44.34577705	         -7.65248351	         -9.79969714	         -0.36668095	          8.23102828	          6.73993887	         70.85495313	         47.35717561	         63.72152975	
        172.91000000	        -30.62585626	         -7.65248351	         -9.79969714	         -0.36668095	          8.23102828	          6.73993887	         70.85495313	         47.35717561	         63.72152975	
        172.92000000	        -16.90593547	         -7.65248351	         -9.79969714	         -0.36668095	          8.23102828	          6.73993887	         70.85495313	         47.35717561	         63.72152975	
        172.93000000	        -44.34577705	          4.60560848	         -9.79969714	         -0.36668095	          8.23102828	          6.73993887	         70.85495313	         47.35717561	         63.72152975	
        172.94000000	        -30.62585626	          4.60560848	         -9.79969714	         -0.36668095	          8.23102828	          6.73993887	         70.85495313	         47.35717561	         63.72152975	
        172.95000000	        -16.90593547	          4.60560848	         -9.79969714	         -0.36668095	          8.23102828	          6.73993887	         70.85495313	         47.35717561	         63.72152975	
        172.96000000	        -44.34577705	         16.86370047	         -9.79969714	         -0.36668095	          8.23102828	          6.73993887	         70.85495313	         47.35717561	         63.72152975	
        172.97000000	        -30.62585626	         16.86370047	         -9.79969714	         -0.36668095	          8.23102828	          6.73993887	         70.85495313	         47.35717561	         63.72152975	
        172.98000000	        -16.90593547	         16.86370047	         -9.79969714	         -0.36668095	          8.23102828	          6.73993887	         70.85495313	         47.35717561	         63.72152975	
        172.99000000	        -44.34577705	         -7.65248351	         11.28790885	         -0.36668095	          8.23102828	          6.73993887	         70.85495313	         47.35717561	         63.72152975	
        173.00000000	        -30.62585626	         -7.65248351	         11.28790885	         -0.36668095	          8.23102828	          6.73993887	         70.85495313	         47.35717561	         63.72152975	
        173.01000000	        -16.90593547	         -7.65248351	         11.28790885	         -0.36668095	          8.23102828	          6.73993887	         70.85495313	         47.35717561	         63.72152975	
        173.02000000	        -44.34577705	          4.60560848	         11.28790885	         -0.36668095	          8.23102828	          6.73993887	         70.85495313	         47.35717561	         63.72152975	
        173.03000000	        -30.62585626	          4.60560848	         11.28790885	         -0.36668095	          8.23102828	          6.73993887	         70.85495313	         47.35717561	         63.72152975	
        173.04000000	        -16.90593547	          4.60560848	         11.28790885	         -0.36668095	          8.23102828	          6.73993887	         70.85495313	         47.35717561	         63.72152975	
        173.05000000	        -44.34577705	         16.86370047	         11.28790885	         -0.36668095	          8.23102828	          6.73993887	         70.85495313	         47.35717561	         63.72152975	
        173.06000000	        -30.62585626	         16.86370047	         11.28790885	         -0.36668095	          8.23102828	          6.73993887	         70.85495313	         47.35717561	         63.72152975	
        173.07000000	        -16.90593547	         16.86370047	         11.28790885	         -0.36668095	          8.23102828	          6.73993887	         70.85495313	         47.35717561	         63.72152975	
        173.08000000	        -44.34577705	         -7.65248351	        -30.88730313	          7.08700750	          8.23102828	          6.73993887	         70.85495313	         47.35717561	         63.72152975	
        173.09000000	        -30.62585626	         -7.65248351	        -30.88730313	          7.08700750	          8.23102828	          6.73993887	         70.85495313	         47.35717561	         63.72152975	
        173.10000000	        -16.90593547	         -7.65248351	        -30.88730313	          7.08700750	          8.23102828	          6.73993887	         70.85495313	         47.35717561	         63.72152975	
        173.11000000	        -44.34577705	          4.60560848	        -30.88730313	          7.08700750	          8.23102828	          6.73993887	         70.85495313	         47.35717561	         63.72152975	
        173.12000000	        -30.62585626	          4.60560848	        -30.88730313	          7.08700750	          8.23102828	          6.73993887	         70.85495313	         47.35717561	         63.72152975	
        173.13000000	        -16.90593547	          4.60560848	        -30.88730313	          7.08700750	          8.23102828	          6.73993887	         70.85495313	         47.35717561	         63.72152975	
        173.14000000	        -44.34577705	         16.86370047	        -30.88730313	          7.08700750	          8.23102828	          6.73993887	         70.85495313	         47.35717561	         63.72152975	
        173.15000000	        -30.62585626	         16.86370047	        -30.88730313	          7.08700750	          8.23102828	          6.73993887	         70.85495313	         47.35717561	         63.72152975	
        173.16000000	        -16.90593547	         16.86370047	        -30.88730313	          7.08700750	          8.23102828	          6.73993887	         70.85495313	         47.35717561	         63.72152975	
        173.17000000	        -44.34577705	         -7.65248351	         -9.79969714	          7.08700750	          8.23102828	          6.73993887	         70.85495313	         47.35717561	         63.72152975	
        173.18000000	        -30.62585626	         -7.65248351	         -9.79969714	          7.08700750	          8.23102828	          6.73993887	         70.85495313	         47.35717561	         63.72152975	
